HIERARCHY
ROOT Hips
{
  OFFSET 5.84602e-005 68.8428 3.50346
  CHANNELS 6 Xposition Yposition Zposition Zrotation Xrotation Yrotation
  JOINT Spine
  {
    OFFSET 0 8.597 -4.6522
    CHANNELS 3 Zrotation Xrotation Yrotation
    JOINT Spine1
    {
      OFFSET 0 7.8454 0.4098
      CHANNELS 3 Zrotation Xrotation Yrotation
      JOINT Spine2
      {
        OFFSET 0 9.7078 -2.1609
        CHANNELS 3 Zrotation Xrotation Yrotation
        JOINT Neck
        {
          OFFSET 0 21.8761 -0.4549
          CHANNELS 3 Zrotation Xrotation Yrotation
          JOINT Head
          {
            OFFSET 0 12.3537 3.3602
            CHANNELS 3 Zrotation Xrotation Yrotation
            End Site
            {
              OFFSET 0.0001 18.9506 0.5657
            }
          }
        }
        JOINT LeftShoulder
        {
          OFFSET 2.2086 21.1115 7.2329
          CHANNELS 3 Zrotation Xrotation Yrotation
          JOINT LeftArm
          {
            OFFSET 13.1193 3.0282 -4.8998
            CHANNELS 3 Zrotation Xrotation Yrotation
            JOINT LeftForeArm
            {
              OFFSET 27.4081 -0.0973053 -0.2375
              CHANNELS 3 Zrotation Xrotation Yrotation
              JOINT LeftHand
              {
                OFFSET 22.8641 0.0662994 -0.1369
                CHANNELS 3 Zrotation Xrotation Yrotation
                JOINT LeftHandIndex1
                {
                  OFFSET 8.8614 0.775009 2.4612
                  CHANNELS 3 Zrotation Xrotation Yrotation
                  JOINT LeftHandIndex2
                  {
                    OFFSET 3.3146 -0.808304 0.5841
                    CHANNELS 3 Zrotation Xrotation Yrotation
                    JOINT LeftHandIndex3
                    {
                      OFFSET 2.2628 -0.552002 0.3989
                      CHANNELS 3 Zrotation Xrotation Yrotation
                      End Site
                      {
                        OFFSET 1.6102 -0.4807 0.2612
                      }
                    }
                  }
                }
                JOINT LeftHandMiddle1
                {
                  OFFSET 8.9937 0.895004 0.2143
                  CHANNELS 3 Zrotation Xrotation Yrotation
                  JOINT LeftHandMiddle2
                  {
                    OFFSET 4.0984 0.0113983 -0.0242
                    CHANNELS 3 Zrotation Xrotation Yrotation
                    JOINT LeftHandMiddle3
                    {
                      OFFSET 2.2716 0.00689697 -0.0138001
                      CHANNELS 3 Zrotation Xrotation Yrotation
                      End Site
                      {
                        OFFSET 2.0404 -0.1441 0.0027
                      }
                    }
                  }
                }
                JOINT LeftHandRing1
                {
                  OFFSET 8.5234 0.597198 -2.0164
                  CHANNELS 3 Zrotation Xrotation Yrotation
                  JOINT LeftHandRing2
                  {
                    OFFSET 3.7188 -0.188293 -0.2328
                    CHANNELS 3 Zrotation Xrotation Yrotation
                    JOINT LeftHandRing3
                    {
                      OFFSET 2.1191 -0.106598 -0.1332
                      CHANNELS 3 Zrotation Xrotation Yrotation
                      End Site
                      {
                        OFFSET 1.8737 -0.2304 -0.0886
                      }
                    }
                  }
                }
                JOINT LeftHandPinky1
                {
                  OFFSET 7.9094 -0.601089 -3.4825
                  CHANNELS 3 Zrotation Xrotation Yrotation
                  JOINT LeftHandPinky2
                  {
                    OFFSET 2.2874 -0.477005 -0.6314
                    CHANNELS 3 Zrotation Xrotation Yrotation
                    JOINT LeftHandPinky3
                    {
                      OFFSET 1.6774 -0.349396 -0.4633
                      CHANNELS 3 Zrotation Xrotation Yrotation
                      End Site
                      {
                        OFFSET 1.4888 -0.4091 -0.3416
                      }
                    }
                  }
                }
                JOINT LeftHandThumb1
                {
                  OFFSET 1.833 -1.3875 1.3896
                  CHANNELS 3 Zrotation Xrotation Yrotation
                  JOINT LeftHandThumb2
                  {
                    OFFSET 3.4129 -1.121 2.5732
                    CHANNELS 3 Zrotation Xrotation Yrotation
                    JOINT LeftHandThumb3
                    {
                      OFFSET 2.2474 -0.804199 1.6192
                      CHANNELS 3 Zrotation Xrotation Yrotation
                      End Site
                      {
                        OFFSET 1.6527 -0.5689 1.1317
                      }
                    }
                  }
                }
              }
            }
          }
        }
        JOINT RightShoulder
        {
          OFFSET -2.2086 21.1115 7.2329
          CHANNELS 3 Zrotation Xrotation Yrotation
          JOINT RightArm
          {
            OFFSET -13.1216 3.0287 -4.9007
            CHANNELS 3 Zrotation Xrotation Yrotation
            JOINT RightForeArm
            {
              OFFSET -27.4081 -0.0973053 -0.2375
              CHANNELS 3 Zrotation Xrotation Yrotation
              JOINT RightHand
              {
                OFFSET -22.8641 0.0664063 -0.1369
                CHANNELS 3 Zrotation Xrotation Yrotation
                JOINT RightHandIndex1
                {
                  OFFSET -8.8614 0.774994 2.4612
                  CHANNELS 3 Zrotation Xrotation Yrotation
                  JOINT RightHandIndex2
                  {
                    OFFSET -3.3146 -0.808304 0.5841
                    CHANNELS 3 Zrotation Xrotation Yrotation
                    JOINT RightHandIndex3
                    {
                      OFFSET -2.2628 -0.552002 0.3989
                      CHANNELS 3 Zrotation Xrotation Yrotation
                      End Site
                      {
                        OFFSET -1.6102 -0.4807 0.2612
                      }
                    }
                  }
                }
                JOINT RightHandMiddle1
                {
                  OFFSET -8.9937 0.894989 0.2143
                  CHANNELS 3 Zrotation Xrotation Yrotation
                  JOINT RightHandMiddle2
                  {
                    OFFSET -4.0984 0.0113983 -0.0242
                    CHANNELS 3 Zrotation Xrotation Yrotation
                    JOINT RightHandMiddle3
                    {
                      OFFSET -2.2716 0.00691223 -0.0138001
                      CHANNELS 3 Zrotation Xrotation Yrotation
                      End Site
                      {
                        OFFSET -2.0404 -0.1441 0.0027
                      }
                    }
                  }
                }
                JOINT RightHandRing1
                {
                  OFFSET -8.5234 0.597198 -2.0164
                  CHANNELS 3 Zrotation Xrotation Yrotation
                  JOINT RightHandRing2
                  {
                    OFFSET -3.7188 -0.188309 -0.2328
                    CHANNELS 3 Zrotation Xrotation Yrotation
                    JOINT RightHandRing3
                    {
                      OFFSET -2.1191 -0.106598 -0.1332
                      CHANNELS 3 Zrotation Xrotation Yrotation
                      End Site
                      {
                        OFFSET -1.8737 -0.2304 -0.0886
                      }
                    }
                  }
                }
                JOINT RightHandPinky1
                {
                  OFFSET -7.9094 -0.601105 -3.4825
                  CHANNELS 3 Zrotation Xrotation Yrotation
                  JOINT RightHandPinky2
                  {
                    OFFSET -2.2874 -0.477005 -0.6314
                    CHANNELS 3 Zrotation Xrotation Yrotation
                    JOINT RightHandPinky3
                    {
                      OFFSET -1.6774 -0.349396 -0.4633
                      CHANNELS 3 Zrotation Xrotation Yrotation
                      End Site
                      {
                        OFFSET -1.4888 -0.4091 -0.3416
                      }
                    }
                  }
                }
                JOINT RightHandThumb1
                {
                  OFFSET -1.833 -1.38751 1.3896
                  CHANNELS 3 Zrotation Xrotation Yrotation
                  JOINT RightHandThumb2
                  {
                    OFFSET -3.41299 -1.12099 2.5732
                    CHANNELS 3 Zrotation Xrotation Yrotation
                    JOINT RightHandThumb3
                    {
                      OFFSET -2.24741 -0.804108 1.6192
                      CHANNELS 3 Zrotation Xrotation Yrotation
                      End Site
                      {
                        OFFSET -1.6527 -0.5689 1.1317
                      }
                    }
                  }
                }
              }
            }
          }
        }
      }
    }
  }
  JOINT RightUpLeg
  {
    OFFSET -9.1966 3.8861 -0.7581
    CHANNELS 3 Zrotation Xrotation Yrotation
    JOINT RightLeg
    {
      OFFSET -0.7359 -41.0265 0
      CHANNELS 3 Zrotation Xrotation Yrotation
      JOINT RightFoot
      {
        OFFSET 0 -40.2855 0
        CHANNELS 3 Zrotation Xrotation Yrotation
        JOINT RightToeBase
        {
          OFFSET 0 -5.6122 11.7359
          CHANNELS 3 Zrotation Xrotation Yrotation
          End Site
          {
            OFFSET 0 0 7.8731
          }
        }
      }
    }
  }
  JOINT LeftUpLeg
  {
    OFFSET 9.1965 3.8864 -0.7581
    CHANNELS 3 Zrotation Xrotation Yrotation
    JOINT LeftLeg
    {
      OFFSET 0.7359 -41.0268 0
      CHANNELS 3 Zrotation Xrotation Yrotation
      JOINT LeftFoot
      {
        OFFSET 0 -40.2855 0
        CHANNELS 3 Zrotation Xrotation Yrotation
        JOINT LeftToeBase
        {
          OFFSET 0 -5.6122 11.7359
          CHANNELS 3 Zrotation Xrotation Yrotation
          End Site
          {
            OFFSET 0 0 7.8731
          }
        }
      }
    }
  }
}
MOTION
Frames:	4
Frame Time:	0.0333333
5.84602e-005 68.8428 3.50346 0 0 -0 0 0 -0 0 0 -0 0 0 -0 0 0 -0 0 0 -0 0 0 -0 0 0 -0 0 0 -0 0 0 -0 0 0 -0 0 0 -0 0 0 -0 0 0 -0 -0.0146107 -8.87603e-005 -2.63497e-007 2.99804e-018 -2.42657e-020 -1.42182e-022 0 0 -0 -0.0187562 -0.001176 5.858e-005 5.06224e-018 3.88251e-019 1.21329e-020 0 0 -0 -0.012269 -0.00324817 0.000675346 -1.74678e-018 3.88251e-019 -0 0 0 -0 0 0 -0 0 0 -0 0 0 -0 0 0 -0 0 0 -0 0 0 -0 0 0 -0 0 0 -0 0 0 -0 0 0 -0 0.0149955 -9.10982e-005 2.64101e-007 -9.69331e-018 1.21329e-020 -4.7394e-023 0 0 -0 0.0189956 -0.00119102 -5.96516e-005 -5.41541e-019 0 2.42657e-020 0 0 -0 0.0122698 -0.00324857 -0.000673756 -2.00796e-019 0 -1.94126e-019 0 0 -0 0 0 -0 0 0 -0 3.39842 1.33031 -0.0637918 -5.65207e-008 0.834868 -0.000436188 -3.39935 -2.16518 -0.0642563 -8.89002e-024 -1.18485e-023 -1.48106e-024 -3.39844 1.35642 0.0640283 -3.18788e-007 0.782166 -0.000588827 3.39931 -2.13858 0.0634662 1.1399e-023 0 -0 
3.41837 23.6309 -35.8654 133.329 65.9141 5.19102e-007 -0.0107176 -0.320913 -0.207392 -0.0225734 -0.641745 -0.41484 -0.0225418 -0.641755 -0.414833 0.000204185 32.5913 -0.000199367 1.52252e-006 -29.4009 5.91434e-007 -14.1058 2.54775 13.2095 -1.01268 3.83541 -58.1273 -10.1343 -8.12744 -31.5002 -28.0643 -23.8246 -29.8504 1.5567e-007 -2.05841e-006 8.21423e-007 1.44791e-006 1.61281e-007 9.27919e-007 -1.44445e-007 -1.01466e-006 2.8655e-007 1.5567e-007 -2.05841e-006 8.21423e-007 -0.0146568 -9.02978e-005 -3.53732e-009 -1.45438e-007 -1.0147e-006 2.8642e-007 1.5567e-007 -2.05841e-006 8.21423e-007 -0.0186773 -0.00117077 5.65097e-005 -1.45708e-007 -1.01479e-006 2.8639e-007 1.5567e-007 -2.05841e-006 8.21423e-007 -0.0123737 -0.00327387 0.000681886 -1.45281e-007 -1.01491e-006 2.8649e-007 1.5567e-007 -2.05841e-006 8.21423e-007 1.44791e-006 1.61281e-007 9.27919e-007 -1.44445e-007 -1.01466e-006 2.8655e-007 14.0659 2.24378 -12.9935 0.972419 3.78702 57.9903 10.0888 -8.20031 31.4268 28.4808 -23.4613 29.4967 -3.56942e-006 2.07942e-007 1.53115e-006 -3.9103e-006 1.0105e-006 2.9415e-006 -3.56942e-006 2.07942e-007 1.53115e-006 -3.56942e-006 2.07942e-007 1.53115e-006 0.0149676 -9.36813e-005 2.62629e-006 -3.56922e-006 2.08141e-007 1.53113e-006 -3.56942e-006 2.07942e-007 1.53115e-006 0.0189599 -0.00118738 -5.87256e-005 -3.56915e-006 2.08178e-007 1.53116e-006 -3.56942e-006 2.07942e-007 1.53115e-006 0.0122946 -0.00325391 -0.000674447 -3.56922e-006 2.08042e-007 1.53122e-006 -3.56942e-006 2.07942e-007 1.53115e-006 -3.9103e-006 1.0105e-006 2.9415e-006 -3.56942e-006 2.07942e-007 1.53115e-006 -30.6183 -19.9055 -23.4589 -10.4017 52.3835 13.5916 -17.1541 32.6862 19.8793 1.77257e-006 3.96305e-006 -2.10828e-006 30.2349 -20.3838 23.4912 10.0024 51.3919 -13.1188 17.7632 34.0642 -20.2372 -9.10802e-008 -8.12438e-008 -1.75077e-007 
-1.84273 -2.46352 -52.3872 13.3267 84.4214 -180 -0.026486 -0.403274 -0.300332 -0.0550894 -0.806403 -0.600861 -0.0550898 -0.806418 -0.60086 -0.000218853 47.2578 0.000252954 -4.34403e-006 -43.7675 -5.56225e-006 -20.7263 3.36761 19.2797 0.0636969 1.09313 -84.0861 -17.4827 -9.57958 -46.3519 -48.8464 -29.3872 -46.4643 4.67144e-015 -7.95139e-016 -0 1.04362e-015 7.95139e-016 -0 -5.31749e-015 7.95139e-016 -0 4.67144e-015 -7.95139e-016 -0 -0.0145949 -8.92935e-005 2.40393e-007 -2.73329e-015 7.95139e-016 1.59028e-015 4.67144e-015 -7.95139e-016 -0 -0.0187208 -0.00117393 5.92482e-005 -4.32357e-015 1.19271e-015 -0 4.67144e-015 -7.95139e-016 -0 -0.0123021 -0.00325849 0.000678753 1.12797e-006 2.60712e-007 -8.79143e-008 4.67144e-015 -7.95139e-016 -0 1.04362e-015 7.95139e-016 -0 -5.31749e-015 7.95139e-016 -0 20.6193 2.9473 -18.9698 -0.10645 1.10936 83.8961 17.4343 -9.67935 46.2435 49.234 -29.0584 45.8572 3.72721e-015 -7.95139e-016 -0 -1.11403e-008 -3.73379e-007 -4.72484e-007 1.19271e-015 3.97569e-016 -0 3.72721e-015 -7.95139e-016 -0 0.0149786 -9.12632e-005 -6.19366e-007 -1.93815e-015 7.95139e-016 1.59028e-015 3.72721e-015 -7.95139e-016 -0 0.0189734 -0.00119004 -6.01456e-005 4.07509e-015 7.95139e-016 -0 3.72721e-015 -7.95139e-016 -0 0.0122595 -0.00324567 -0.000675914 1.88845e-015 7.95139e-016 -0 3.72721e-015 -7.95139e-016 -0 -1.11403e-008 -3.73379e-007 -4.72484e-007 1.19271e-015 3.97569e-016 -0 -51.0189 -28.3148 -36.649 -42.8503 71.6382 43.8727 -35.5464 45.71 35.6043 -3.97569e-015 0 -9.54166e-015 50.8594 -27.7418 36.4861 42.3157 71.5152 -43.3876 35.2905 45.3877 -35.3662 -8.18013e-007 1.93048e-007 -1.20714e-007 
-1.0802 3.89549 -48.846 179.994 88.9936 7.52443e-009 -0.0232873 -0.247196 -0.279616 -0.0477817 -0.494347 -0.559341 -0.047782 -0.494339 -0.559341 0.000136504 43.9984 -0.00020678 8.67574e-008 -43.1028 2.20878e-007 -19.0122 2.70844 18.1672 -0.0909052 1.98928 -78.3606 -15.9644 -9.23065 -43.8252 -43.4759 -28.9309 -42.5162 -3.29535e-006 2.97016e-008 4.57082e-008 7.15145e-007 -2.75601e-007 -2.4177e-007 -3.96542e-006 1.82833e-007 -1.18806e-007 -3.29535e-006 2.97016e-008 4.57082e-008 -0.014572 -8.83931e-005 -8.75537e-007 -3.29548e-006 2.9695e-008 4.57145e-008 -3.29535e-006 2.97016e-008 4.57082e-008 -0.0187464 -0.00117608 5.87615e-005 -3.29551e-006 2.96856e-008 4.57474e-008 -3.29535e-006 2.97016e-008 4.57082e-008 -0.0122394 -0.00323971 0.000673423 -3.29546e-006 2.96881e-008 4.58103e-008 -3.29535e-006 2.97016e-008 4.57082e-008 7.15145e-007 -2.75601e-007 -2.4177e-007 -3.96542e-006 1.82833e-007 -1.18806e-007 18.9253 2.32185 -17.8969 0.0514396 1.98609 78.1808 15.9107 -9.3297 43.7062 43.8867 -28.5756 42.0092 5.1684e-015 0 -0 8.74653e-015 0 -7.95139e-016 1.23246e-014 0 -1.59028e-015 5.1684e-015 0 -0 0.015006 -9.14959e-005 -8.02072e-008 8.54774e-015 4.77083e-015 1.59028e-015 5.1684e-015 0 -0 0.018998 -0.00119121 -6.01342e-005 1.98785e-016 1.59028e-015 -7.95139e-016 5.1684e-015 0 -0 0.0122954 -0.00325601 -0.000677434 1.27222e-014 -4.77083e-015 1.59028e-015 5.1684e-015 0 -0 8.74653e-015 0 -7.95139e-016 1.23246e-014 0 -1.59028e-015 -45.9518 -26.5782 -33.5193 -31.0826 68.2575 32.6459 -30.6603 42.9999 31.334 -9.77558e-008 -5.04259e-008 -6.90298e-010 45.9453 -26.5815 33.4841 31.001 68.2754 -32.585 30.6328 43.035 -31.3007 -1.10348e-032 1.98785e-016 3.18055e-015 
